<svg xmlns="http://www.w3.org/2000/svg" viewBox="0 0 256 256">
  <rect width="256" height="256" fill="#000"/>
  <rect x="66" y="40" width="124" height="150" rx="10" fill="#2f8fff"/>
  <rect x="84" y="56" width="88" height="112" rx="6" fill="#dff1ff"/>
  <g fill="#2f8fff">
    <rect x="94" y="66" width="14" height="14" rx="2"/><rect x="121" y="66" width="14" height="14" rx="2"/><rect x="148" y="66" width="14" height="14" rx="2"/>
    <rect x="94" y="92" width="14" height="14" rx="2"/><rect x="121" y="92" width="14" height="14" rx="2"/><rect x="148" y="92" width="14" height="14" rx="2"/>
    <rect x="94" y="118" width="14" height="14" rx="2"/><rect x="121" y="118" width="14" height="14" rx="2"/><rect x="148" y="118" width="14" height="14" rx="2"/>
    <rect x="94" y="144" width="14" height="14" rx="2"/><rect x="121" y="144" width="14" height="14" rx="2"/><rect x="148" y="144" width="14" height="14" rx="2"/>
  </g>
  <rect x="100" y="190" width="6" height="40" fill="#9aa3ad"/>
  <rect x="125" y="190" width="6" height="40" fill="#9aa3ad"/>
  <rect x="150" y="190" width="6" height="40" fill="#9aa3ad"/>
  <rect x="196" y="60" width="16" height="84" rx="8" fill="#f4f7ff"/>
  <circle cx="204" cy="152" r="16" fill="#ff4d4d"/>
  <rect x="200" y="96" width="8" height="56" fill="#ff4d4d"/>
</svg>
